<mxfile host="app.diagrams.net" modified="2020-11-30T14:24:14.409Z" agent="5.0 (Macintosh; Intel Mac OS X 10_14_4) AppleWebKit/537.36 (KHTML, like Gecko) Chrome/86.0.4240.198 Safari/537.36" etag="ptCNJKcgYj2jlGdQTPLH" version="13.10.4" type="github">
  <diagram id="tCJEQdSj-ddSvFi1T4Mk" name="Page-1">
    <mxGraphModel dx="786" dy="459" grid="1" gridSize="10" guides="1" tooltips="1" connect="1" arrows="1" fold="1" page="1" pageScale="1" pageWidth="827" pageHeight="1169" math="0" shadow="0">
      <root>
        <mxCell id="0" />
        <mxCell id="1" parent="0" />
        <mxCell id="BEosJdqHNHQFVZzrXiBb-1" value="service" style="shape=umlLifeline;perimeter=lifelinePerimeter;whiteSpace=wrap;html=1;container=1;collapsible=0;recursiveResize=0;outlineConnect=0;fillColor=#66FF66;" vertex="1" parent="1">
          <mxGeometry x="10" y="30" width="100" height="340" as="geometry" />
        </mxCell>
        <mxCell id="BEosJdqHNHQFVZzrXiBb-2" value="ec" style="shape=umlLifeline;perimeter=lifelinePerimeter;whiteSpace=wrap;html=1;container=1;collapsible=0;recursiveResize=0;outlineConnect=0;fillColor=#33FF33;" vertex="1" parent="1">
          <mxGeometry x="140" y="30" width="100" height="340" as="geometry" />
        </mxCell>
        <mxCell id="BEosJdqHNHQFVZzrXiBb-3" value="" style="html=1;points=[];perimeter=orthogonalPerimeter;" vertex="1" parent="BEosJdqHNHQFVZzrXiBb-2">
          <mxGeometry x="45" y="70" width="10" height="20" as="geometry" />
        </mxCell>
        <mxCell id="BEosJdqHNHQFVZzrXiBb-4" value="" style="html=1;points=[];perimeter=orthogonalPerimeter;" vertex="1" parent="BEosJdqHNHQFVZzrXiBb-2">
          <mxGeometry x="45" y="260" width="10" height="20" as="geometry" />
        </mxCell>
        <mxCell id="BEosJdqHNHQFVZzrXiBb-5" value="ea" style="shape=umlLifeline;perimeter=lifelinePerimeter;whiteSpace=wrap;html=1;container=1;collapsible=0;recursiveResize=0;outlineConnect=0;fillColor=#FFB366;" vertex="1" parent="1">
          <mxGeometry x="260" y="30" width="100" height="340" as="geometry" />
        </mxCell>
        <mxCell id="BEosJdqHNHQFVZzrXiBb-6" value="" style="html=1;points=[];perimeter=orthogonalPerimeter;" vertex="1" parent="BEosJdqHNHQFVZzrXiBb-5">
          <mxGeometry x="45" y="90" width="10" height="20" as="geometry" />
        </mxCell>
        <mxCell id="BEosJdqHNHQFVZzrXiBb-7" value="" style="html=1;points=[];perimeter=orthogonalPerimeter;" vertex="1" parent="BEosJdqHNHQFVZzrXiBb-5">
          <mxGeometry x="45" y="240" width="10" height="20" as="geometry" />
        </mxCell>
        <mxCell id="BEosJdqHNHQFVZzrXiBb-8" value="image-controller" style="shape=umlLifeline;perimeter=lifelinePerimeter;whiteSpace=wrap;html=1;container=1;collapsible=0;recursiveResize=0;outlineConnect=0;fillColor=#FFB366;" vertex="1" parent="1">
          <mxGeometry x="390" y="30" width="100" height="340" as="geometry" />
        </mxCell>
        <mxCell id="BEosJdqHNHQFVZzrXiBb-9" value="" style="html=1;points=[];perimeter=orthogonalPerimeter;" vertex="1" parent="BEosJdqHNHQFVZzrXiBb-8">
          <mxGeometry x="45" y="110" width="10" height="130" as="geometry" />
        </mxCell>
        <mxCell id="BEosJdqHNHQFVZzrXiBb-10" value="edge-node" style="shape=umlLifeline;perimeter=lifelinePerimeter;whiteSpace=wrap;html=1;container=1;collapsible=0;recursiveResize=0;outlineConnect=0;fillColor=#FFB366;" vertex="1" parent="1">
          <mxGeometry x="520" y="30" width="100" height="340" as="geometry" />
        </mxCell>
        <mxCell id="BEosJdqHNHQFVZzrXiBb-11" value="" style="html=1;points=[];perimeter=orthogonalPerimeter;" vertex="1" parent="BEosJdqHNHQFVZzrXiBb-10">
          <mxGeometry x="45" y="120" width="10" height="70" as="geometry" />
        </mxCell>
        <mxCell id="BEosJdqHNHQFVZzrXiBb-12" value="cloud-bos" style="shape=umlLifeline;perimeter=lifelinePerimeter;whiteSpace=wrap;html=1;container=1;collapsible=0;recursiveResize=0;outlineConnect=0;fillColor=#33FF33;" vertex="1" parent="1">
          <mxGeometry x="650" y="30" width="100" height="340" as="geometry" />
        </mxCell>
        <mxCell id="BEosJdqHNHQFVZzrXiBb-13" value="update vm anno" style="html=1;verticalAlign=bottom;endArrow=block;" edge="1" parent="1" source="BEosJdqHNHQFVZzrXiBb-1" target="BEosJdqHNHQFVZzrXiBb-2">
          <mxGeometry width="80" relative="1" as="geometry">
            <mxPoint x="60" y="100" as="sourcePoint" />
            <mxPoint x="140" y="100" as="targetPoint" />
            <Array as="points">
              <mxPoint x="140" y="100" />
            </Array>
          </mxGeometry>
        </mxCell>
        <mxCell id="BEosJdqHNHQFVZzrXiBb-14" value="sync vm" style="html=1;verticalAlign=bottom;endArrow=block;exitX=0.8;exitY=1;exitDx=0;exitDy=0;exitPerimeter=0;" edge="1" parent="1" source="BEosJdqHNHQFVZzrXiBb-3">
          <mxGeometry width="80" relative="1" as="geometry">
            <mxPoint x="210" y="120" as="sourcePoint" />
            <mxPoint x="310" y="120" as="targetPoint" />
            <Array as="points" />
          </mxGeometry>
        </mxCell>
        <mxCell id="BEosJdqHNHQFVZzrXiBb-15" value="watch vm update" style="html=1;verticalAlign=bottom;endArrow=block;exitX=0.8;exitY=1;exitDx=0;exitDy=0;exitPerimeter=0;entryX=0.3;entryY=0;entryDx=0;entryDy=0;entryPerimeter=0;" edge="1" parent="1" target="BEosJdqHNHQFVZzrXiBb-9">
          <mxGeometry width="80" relative="1" as="geometry">
            <mxPoint x="310" y="140" as="sourcePoint" />
            <mxPoint x="427" y="140" as="targetPoint" />
            <Array as="points">
              <mxPoint x="377.5" y="140" />
            </Array>
          </mxGeometry>
        </mxCell>
        <mxCell id="BEosJdqHNHQFVZzrXiBb-16" value="create snapshot" style="html=1;verticalAlign=bottom;endArrow=block;entryX=0;entryY=0;" edge="1" parent="1" target="BEosJdqHNHQFVZzrXiBb-11">
          <mxGeometry relative="1" as="geometry">
            <mxPoint x="444" y="150" as="sourcePoint" />
          </mxGeometry>
        </mxCell>
        <mxCell id="BEosJdqHNHQFVZzrXiBb-17" value="update vm anno" style="html=1;verticalAlign=bottom;endArrow=open;dashed=1;endSize=8;exitX=-0.1;exitY=0.977;exitDx=0;exitDy=0;exitPerimeter=0;" edge="1" parent="1" source="BEosJdqHNHQFVZzrXiBb-9" target="BEosJdqHNHQFVZzrXiBb-5">
          <mxGeometry x="0.0281" y="-7" relative="1" as="geometry">
            <mxPoint x="440" y="230" as="sourcePoint" />
            <mxPoint x="360" y="230" as="targetPoint" />
            <mxPoint as="offset" />
          </mxGeometry>
        </mxCell>
        <mxCell id="BEosJdqHNHQFVZzrXiBb-18" value="&lt;font style=&quot;font-size: 11px&quot;&gt;sync vm status&lt;/font&gt;" style="html=1;verticalAlign=bottom;endArrow=open;dashed=1;endSize=8;exitX=0.5;exitY=1;exitDx=0;exitDy=0;exitPerimeter=0;" edge="1" parent="1" source="BEosJdqHNHQFVZzrXiBb-7" target="BEosJdqHNHQFVZzrXiBb-2">
          <mxGeometry relative="1" as="geometry">
            <mxPoint x="300" y="250" as="sourcePoint" />
            <mxPoint x="190" y="250" as="targetPoint" />
          </mxGeometry>
        </mxCell>
        <mxCell id="BEosJdqHNHQFVZzrXiBb-19" value="success" style="html=1;verticalAlign=bottom;endArrow=open;dashed=1;endSize=8;exitX=0.3;exitY=1;exitDx=0;exitDy=0;exitPerimeter=0;" edge="1" parent="1" source="BEosJdqHNHQFVZzrXiBb-4" target="BEosJdqHNHQFVZzrXiBb-1">
          <mxGeometry relative="1" as="geometry">
            <mxPoint x="180" y="270" as="sourcePoint" />
            <mxPoint x="70" y="270" as="targetPoint" />
          </mxGeometry>
        </mxCell>
        <mxCell id="BEosJdqHNHQFVZzrXiBb-20" value="success" style="html=1;verticalAlign=bottom;endArrow=open;dashed=1;endSize=8;exitX=0;exitY=0.271;exitDx=0;exitDy=0;exitPerimeter=0;" edge="1" parent="1" source="BEosJdqHNHQFVZzrXiBb-11">
          <mxGeometry relative="1" as="geometry">
            <mxPoint x="560" y="170" as="sourcePoint" />
            <mxPoint x="450" y="168" as="targetPoint" />
            <Array as="points" />
          </mxGeometry>
        </mxCell>
        <mxCell id="BEosJdqHNHQFVZzrXiBb-21" value="" style="html=1;points=[];perimeter=orthogonalPerimeter;" vertex="1" parent="1">
          <mxGeometry x="445" y="170" width="10" height="50" as="geometry" />
        </mxCell>
        <mxCell id="BEosJdqHNHQFVZzrXiBb-22" value="qemu-img" style="text;html=1;resizable=0;autosize=1;align=center;verticalAlign=middle;points=[];fillColor=none;strokeColor=none;rounded=0;" vertex="1" parent="1">
          <mxGeometry x="450" y="175" width="70" height="20" as="geometry" />
        </mxCell>
        <mxCell id="BEosJdqHNHQFVZzrXiBb-23" value="delete snapshot" style="html=1;verticalAlign=bottom;endArrow=block;exitX=0.8;exitY=1;exitDx=0;exitDy=0;exitPerimeter=0;" edge="1" parent="1">
          <mxGeometry width="80" relative="1" as="geometry">
            <mxPoint x="455" y="220" as="sourcePoint" />
            <mxPoint x="572" y="220" as="targetPoint" />
            <Array as="points">
              <mxPoint x="522.5" y="220" />
            </Array>
          </mxGeometry>
        </mxCell>
        <mxCell id="BEosJdqHNHQFVZzrXiBb-24" value="push image&amp;nbsp;" style="html=1;verticalAlign=bottom;endArrow=block;" edge="1" parent="1" source="BEosJdqHNHQFVZzrXiBb-9" target="BEosJdqHNHQFVZzrXiBb-12">
          <mxGeometry width="80" relative="1" as="geometry">
            <mxPoint x="490" y="250" as="sourcePoint" />
            <mxPoint x="607" y="250" as="targetPoint" />
            <Array as="points">
              <mxPoint x="557.5" y="250" />
            </Array>
          </mxGeometry>
        </mxCell>
      </root>
    </mxGraphModel>
  </diagram>
</mxfile>
